<svg xmlns="http://www.w3.org/2000/svg" fill="none" viewBox="0 0 60 94"><path stroke="#000" stroke-width="2" d="M30 0v94"/><circle cx="16" cy="14" r="13" stroke="#000" stroke-width="2"/><path d="M23.737 31.02c-1.3.15-1.891.282-2.886.639-.924.333-2.14 1.041-3.096 1.801-.826.657-2.116 2.018-3.613 3.796-1.853 2.205-2.871 3.2-4.002 3.899-1.041.647-2.078 1.036-3.364 1.271-.661.117-1.975.108-2.608-.023-1.21-.244-1.957-.657-2.252-1.239-.357-.704-.329-1.581.07-2.163.286-.417.873-.783 1.253-.783.399 0 .699.37.844 1.041.047.202.103.366.127.366.084 0 0-.98-.113-1.337-.361-1.163-1.2-1.407-2.566-.746-.737.357-1.187.924-1.426 1.788-.132.473-.141 1.585-.02 2.116.526 2.35 2.286 4.152 5.054 5.184 2.895 1.084 6.545 1.15 11.63.216 1.324-.244 2.173-.45 3.261-.798 3.078-.985 6.057-2.534 8.178-4.25.54-.437 1.328-1.225 1.58-1.577.104-.145.203-.263.217-.267.014 0 .103.112.201.253.226.328 1.16 1.248 1.718 1.694 2.472 1.97 6.366 3.823 9.688 4.616 1.267.3 3.505.671 4.95.821 2.847.296 5.343.17 7.281-.375 3.326-.93 5.48-2.89 6.071-5.517.122-.53.113-1.643-.019-2.116-.239-.864-.69-1.431-1.426-1.788-.572-.277-.952-.375-1.375-.347-.37.023-.544.098-.769.328-.329.333-.511.863-.554 1.595-.032.606.029.667.146.141.197-.915.638-1.224 1.295-.92 1.079.503 1.445 1.75.84 2.886-.418.783-1.793 1.276-3.562 1.28-1.656 0-3.166-.44-4.64-1.355-1.036-.643-2.195-1.764-3.851-3.73-2.515-2.984-3.697-4.105-5.307-5.03-2.458-1.416-5.508-1.787-7.807-.942a6.323 6.323 0 0 0-2.416 1.595l-.469.483-.47-.483c-1.322-1.375-3.077-2.07-5.16-2.041-.272 0-.554.014-.633.019Z" fill="#000"/></svg>